<svg width="237" height="44" viewBox="0 0 237 44" fill="none" xmlns="http://www.w3.org/2000/svg">
<path d="M21 1.18457C9.41111 1.18457 0 10.5957 0 22.1846C0 33.7735 9.41111 43.1846 21 43.1846C32.5889 43.1846 42 33.7735 42 22.1846C42 10.5957 32.5889 1.18457 21 1.18457ZM21 2.74013C23.9789 2.74013 26.7867 3.42613 29.3098 4.62079C27.4882 4.9879 25.9404 5.78746 25.5702 5.70502C25.0024 5.58057 22.2522 6.05657 21.2427 6.43457C20.2331 6.81413 20.328 7.29479 20.076 7.35857C19.824 7.42079 19.6887 7.64635 19.2982 8.08657C18.9078 8.52835 19.4927 9.05879 19.4927 9.05879C19.4927 9.05879 20.9907 9.39635 21.2427 8.28101C21.392 7.6199 21.1804 8.84724 21.2427 9.35124C21.3049 9.85679 22.246 9.98124 22.75 9.35124C22.9771 9.06657 22.946 8.37124 23.0907 8.13635C23.268 7.84701 23.66 8.0679 23.8684 8.03835C23.9929 8.02279 23.7067 8.2359 23.8684 8.33079C24.1904 8.52057 24.8531 8.19546 24.6944 8.96235C24.6307 9.2719 23.6538 9.33257 23.5278 9.78835C23.4002 10.2441 23.1871 10.5179 23.1871 10.5179L21.098 10.5661L20.4167 9.5939C20.4167 9.5939 19.754 9.88168 19.9298 10.4697C20.0527 10.8741 19.7369 11.3439 19.7369 11.3439C19.7369 11.3439 18.6667 11.515 18.6667 11.8308C18.6667 12.0035 18.2311 12.0252 17.9853 12.1217C17.7847 12.201 17.6493 12.5308 17.4518 12.5588C17.3336 12.5743 16.5947 12.6832 16.4313 12.705C15.9864 12.7595 16.1871 12.8606 16.1871 13.0457C16.1871 13.2977 17.0131 13.3381 17.0131 13.3381C17.0131 13.3381 17.542 13.5419 17.3553 13.9199C17.1656 14.2995 17.4891 14.455 17.1111 14.455C16.9462 14.455 16.5667 14.4037 16.1871 14.4068C15.6971 14.4068 15.2273 14.2528 15.2149 14.455C15.1682 15.2328 15.1667 16.3512 15.1667 16.3512C15.1667 16.3512 15.8309 16.6779 16.1871 16.5939C16.6818 16.4788 17.4067 16.8661 17.7427 15.9623C17.7691 15.8923 17.7862 15.7415 17.8407 15.6699C18.074 15.3635 18.3276 14.7443 18.7149 14.553C18.9529 14.4332 19.2842 14.511 19.3962 14.5048C19.6482 14.4892 20.076 14.1626 20.076 14.1626C20.076 14.1626 21.1929 14.315 21.4853 15.4272C21.5724 15.7555 21.49 16.2952 21.6798 16.3995C21.7964 16.4632 22.3129 15.9141 22.3129 15.9141L22.8962 15.9623L22.5556 15.1846L21.4853 13.9697L21.6798 13.8763C21.6798 13.8763 22.4918 13.9292 22.5556 14.1175C22.6178 14.3072 23.5947 14.7863 23.4313 15.3339C23.1576 16.2377 23.8202 16.4508 23.8202 16.4508C23.8202 16.4508 24.3942 16.5861 24.6447 16.1117C24.864 15.6963 24.8889 15.3339 24.8889 15.3339L25.6184 15.1846C25.6184 15.1846 25.5484 13.671 26.3464 13.629C27.146 13.5886 27.2222 13.629 27.2222 13.629C27.2222 13.629 28.9769 14.2092 29.1667 14.6495C29.3549 15.0912 29.442 15.5112 28.8742 15.5735C28.308 15.6372 27.4649 15.5268 27.4649 15.5268C27.4649 15.5268 25.2342 15.1892 25.424 15.8192C25.6122 16.4508 25.8129 17.0839 25.8129 17.0839C25.8129 17.0839 26.2967 17.0326 26.7353 17.129C27.2051 17.2363 27.8056 17.1772 27.8056 17.1772L27.9036 18.2475L27.6111 18.3439C27.2938 18.4326 26.3558 18.4932 26.1038 18.5866C25.8518 18.6799 23.1047 18.2008 23.0424 18.2957C22.9787 18.389 22.0873 18.7126 21.5833 18.5881C21.0793 18.4606 20.9518 17.2752 20.9518 17.2752C20.9518 17.2752 20.86 16.709 20.5147 16.7401L17.7924 16.9828C17.7924 16.9828 17.0147 17.3297 17.0147 17.5179C17.0147 17.5179 16.7938 17.3592 16.4796 17.5179C16.1638 17.6766 15.6816 17.6548 15.5556 17.9068C15.4296 18.1588 14.9333 18.6317 14.6798 19.0735C14.4293 19.5137 13.7044 19.5495 13.5131 20.3381C13.3249 21.1252 13.1911 22.4428 13.2222 23.0106C13.2533 23.5783 13.2378 24.9861 13.8056 25.2957C14.3733 25.6068 15.1262 26.3721 15.4093 26.6568C15.6924 26.9399 17.2138 27.1701 17.402 27.0457C17.5918 26.9197 18.2716 26.6568 18.6184 26.6568C18.9653 26.6568 19.7104 26.7112 19.9313 26.8995C20.1507 27.0892 20.4213 27.4968 20.6111 27.9697C20.7993 28.4426 20.9891 29.2406 21.1462 29.5252C21.3033 29.8083 21.9022 30.3497 21.6798 30.8863C21.4604 31.423 21.0824 31.9566 21.1462 32.5866C21.2084 33.2166 21.5864 34.0535 21.7296 34.3366C21.8727 34.6197 22.7827 35.511 22.75 35.7957C22.7189 36.0788 22.9864 36.0088 23.3333 36.1363C23.6802 36.2608 25.1533 35.8548 25.3758 35.6012C25.5951 35.3492 25.9373 34.5528 26.348 34.1421C26.7571 33.733 27.608 33.061 28.0482 32.5866C28.49 32.1137 28.9411 31.6797 28.9722 31.0808C29.0033 30.4803 28.6564 29.1628 28.9722 28.9419C29.288 28.721 29.7251 28.3788 30.0424 27.9697C30.3567 27.559 31.0271 27.5917 31.5 26.2679C31.9729 24.9441 32.1284 24.5319 32.0351 24.4697C31.9418 24.4059 31.1889 24.7186 31.0629 24.9068C30.9369 25.0966 30.1996 25.1432 30.0409 25.2957C29.8853 25.4481 29.1667 25.2957 29.1667 25.2957C29.1667 25.2957 29.47 24.101 29.3129 23.6919C29.1542 23.2828 28.3484 21.6821 28.0964 21.1143C27.8896 20.6492 27.8538 20.111 27.9518 19.7548C27.9922 19.8123 28.0171 19.8435 28.0482 19.8995C28.1602 20.1017 28.7653 20.8172 29.0204 21.553C29.5649 23.1288 30.1871 24.2752 30.1871 24.2752C30.1871 24.2752 31.0084 24.3063 32.3758 23.2532C33.3044 22.5392 34.2984 22.5019 34.4649 22.1363C34.7807 21.4426 33.4927 20.8235 33.4927 20.8235H32.326L31.4518 19.3161L31.6944 19.2197C31.6944 19.2197 32.6636 20.3381 33.1038 20.3381C33.5456 20.3381 34.7184 20.2355 35.098 20.6772C35.476 21.119 36.6582 21.8657 36.848 22.6217C37.0378 23.3777 36.9413 24.4355 37.2836 24.8103C37.7689 25.3361 38.2091 25.2957 38.2091 25.2957L38.7924 23.9346L40.1536 22.379L40.4413 22.2328C40.4149 32.9583 31.7302 41.629 21 41.629C16.1138 41.6311 11.4077 39.7851 7.826 36.4615L8.40933 35.6012L9.09067 32.879L7.43711 31.8586L5.54244 31.2255L4.27778 28.1641C4.27778 28.1641 3.09867 27.2106 2.12022 26.7688C1.75061 25.2686 1.56105 23.7296 1.55556 22.1846C1.55556 21.0381 1.67533 19.9197 1.86667 18.8277C3.06133 17.9099 4.66667 17.1788 4.66667 17.1788C4.66667 17.1788 5.55333 17.0761 4.03511 14.553C3.84201 14.2358 3.69632 13.892 3.60267 13.5326C4.24044 12.2508 5.00111 11.0421 5.894 9.93924C5.81622 10.4012 5.51444 12.3192 6.076 12.6568C6.706 13.0348 7.31111 11.8681 7.43711 11.4901C7.56311 11.1121 8.87756 9.67013 9.38156 8.91413C9.74089 8.37435 9.61489 7.32746 9.24467 6.71457C12.6202 4.13452 16.7514 2.73778 21 2.74013ZM17.1593 6.24013C16.8576 6.26968 16.2353 6.43146 16.2353 6.92146V7.8439C16.2353 7.8439 16.0487 8.17679 15.9444 8.28257C15.8387 8.38679 15.9304 8.87057 15.9927 9.06035C16.0549 9.25013 16.0907 9.83813 16.0907 9.83813C16.0907 9.83813 16.3956 9.99679 16.4796 10.0808C16.5636 10.1632 17.2822 10.3452 17.598 10.1772C17.9122 10.0108 18.0958 9.56746 18.326 9.54568C18.5578 9.5239 18.4162 9.52546 18.3742 9.35124C18.3338 9.18324 18.5702 8.57346 18.5702 8.57346L17.9371 8.03835C17.9371 8.03835 17.5544 7.22168 17.5964 6.96968C17.6384 6.71613 17.2853 6.26968 17.3056 6.24013C17.3102 6.22457 17.2589 6.22457 17.1593 6.24013ZM15.5089 8.08813C15.4233 8.12546 15.2584 8.33079 15.1682 8.37901C15.0484 8.43968 15.0858 8.64813 15.022 8.81613C14.9598 8.98413 14.7793 9.5939 14.7793 9.5939L15.1682 9.74013C15.1682 9.74013 15.7858 9.62346 15.8496 9.49746C15.8993 9.39635 15.7173 8.84413 15.6536 8.62168C15.638 8.56879 15.6536 8.52524 15.6536 8.52524L15.5571 8.13635C15.5416 8.10524 15.5369 8.07413 15.5089 8.08657V8.08813ZM31.794 13.4346C31.9356 13.4346 32.2156 13.5341 32.2793 13.5808C32.3633 13.643 32.3633 14.3819 32.2793 14.8439C32.2484 14.9983 32.2698 15.1587 32.3402 15.2996C32.4107 15.4404 32.5261 15.5538 32.6682 15.6217C32.7958 15.6637 32.8844 16.6763 32.8627 16.8863C32.8424 17.0963 32.2482 17.2535 32.0849 17.2752C31.9216 17.297 31.2371 17.2908 31.2589 16.9828C31.2807 16.6779 31.1407 15.6808 31.0147 15.281C30.8902 14.8828 30.9229 14.3166 31.1127 14.2123C31.3024 14.1081 31.696 13.4828 31.696 13.4828C31.7116 13.4486 31.7458 13.4361 31.794 13.4346ZM30.9182 30.6437C30.842 30.6437 30.7316 30.6592 30.6258 30.6903C30.6258 30.6903 30.5822 31.6237 30.1404 31.9068C29.7002 32.1915 29.4109 32.7406 29.4109 33.0252C29.4109 33.3083 29.3176 33.5666 29.4109 33.8512C29.5058 34.1343 29.722 34.3692 29.9942 34.3381C30.268 34.307 30.5636 33.7159 30.6273 33.4623C30.6896 33.2103 30.9244 32.6659 31.1127 32.4901C31.3024 32.3143 31.3398 31.8197 31.3071 31.5661C31.2807 31.3468 31.4471 30.6312 30.9182 30.6437Z" fill="#10422A"/>
<path d="M221.365 43.6445C218.182 43.6445 215.428 42.9902 213.104 41.6816C210.779 40.373 208.982 38.498 207.713 36.0566C206.443 33.6152 205.809 30.6953 205.809 27.2969V27.2383C205.809 23.8594 206.453 20.959 207.742 18.5371C209.031 16.0957 210.838 14.2207 213.162 12.9121C215.486 11.6035 218.211 10.9492 221.336 10.9492C224.48 10.9492 227.215 11.6035 229.539 12.9121C231.883 14.2012 233.699 16.0664 234.988 18.5078C236.277 20.9297 236.922 23.8398 236.922 27.2383V27.2969C236.922 30.7148 236.277 33.6445 234.988 36.0859C233.719 38.5273 231.922 40.4023 229.598 41.7109C227.273 43 224.529 43.6445 221.365 43.6445ZM221.395 36.9355C222.781 36.9355 223.982 36.5645 224.998 35.8223C226.033 35.0605 226.824 33.9668 227.371 32.541C227.938 31.0957 228.221 29.3477 228.221 27.2969V27.2383C228.221 25.207 227.938 23.4785 227.371 22.0527C226.805 20.627 226.004 19.543 224.969 18.8008C223.934 18.0391 222.723 17.6582 221.336 17.6582C219.969 17.6582 218.768 18.0391 217.732 18.8008C216.717 19.543 215.926 20.627 215.359 22.0527C214.793 23.4785 214.51 25.207 214.51 27.2383V27.2969C214.51 29.3477 214.783 31.0957 215.33 32.541C215.896 33.9668 216.697 35.0605 217.732 35.8223C218.768 36.5645 219.988 36.9355 221.395 36.9355Z" fill="#10422A"/>
<path d="M192.625 43V0.724609H201.18V43H192.625Z" fill="#10422A"/>
<path d="M173.377 43.6445C170.174 43.6445 167.42 42.9902 165.115 41.6816C162.811 40.3535 161.033 38.4688 159.783 36.0273C158.553 33.5859 157.938 30.6953 157.938 27.3555V27.3262C157.938 23.9863 158.553 21.0957 159.783 18.6543C161.033 16.1934 162.781 14.2988 165.027 12.9707C167.293 11.623 169.959 10.9492 173.025 10.9492C176.092 10.9492 178.738 11.6035 180.965 12.9121C183.211 14.2012 184.939 16.0273 186.15 18.3906C187.381 20.7539 187.996 23.5176 187.996 26.6816V29.3184H162.127V23.9277H183.953L179.881 28.9668V25.6855C179.881 23.8496 179.598 22.3164 179.031 21.0859C178.465 19.8359 177.674 18.8984 176.658 18.2734C175.662 17.6484 174.5 17.3359 173.172 17.3359C171.844 17.3359 170.662 17.6582 169.627 18.3027C168.611 18.9473 167.811 19.8945 167.225 21.1445C166.658 22.375 166.375 23.8887 166.375 25.6855V28.9961C166.375 30.7344 166.658 32.2188 167.225 33.4492C167.811 34.6797 168.641 35.627 169.715 36.291C170.789 36.9355 172.068 37.2578 173.553 37.2578C174.725 37.2578 175.74 37.0723 176.6 36.7012C177.459 36.3301 178.162 35.8613 178.709 35.2949C179.256 34.7285 179.627 34.1523 179.822 33.5664L179.881 33.3906H187.732L187.645 33.7129C187.41 34.8652 186.951 36.0273 186.268 37.1992C185.584 38.3711 184.656 39.4453 183.484 40.4219C182.332 41.3984 180.916 42.1797 179.236 42.7656C177.576 43.3516 175.623 43.6445 173.377 43.6445Z" fill="#10422A"/>
<path d="M136.785 43L125.916 11.5938H135.057L141.619 35.4414H141.795L148.27 11.5938H157.205L146.424 43H136.785Z" fill="#10422A"/>
<path d="M110.623 43.6445C107.42 43.6445 104.666 42.9902 102.361 41.6816C100.057 40.3535 98.2793 38.4688 97.0293 36.0273C95.7988 33.5859 95.1836 30.6953 95.1836 27.3555V27.3262C95.1836 23.9863 95.7988 21.0957 97.0293 18.6543C98.2793 16.1934 100.027 14.2988 102.273 12.9707C104.539 11.623 107.205 10.9492 110.271 10.9492C113.338 10.9492 115.984 11.6035 118.211 12.9121C120.457 14.2012 122.186 16.0273 123.396 18.3906C124.627 20.7539 125.242 23.5176 125.242 26.6816V29.3184H99.373V23.9277H121.199L117.127 28.9668V25.6855C117.127 23.8496 116.844 22.3164 116.277 21.0859C115.711 19.8359 114.92 18.8984 113.904 18.2734C112.908 17.6484 111.746 17.3359 110.418 17.3359C109.09 17.3359 107.908 17.6582 106.873 18.3027C105.857 18.9473 105.057 19.8945 104.471 21.1445C103.904 22.375 103.621 23.8887 103.621 25.6855V28.9961C103.621 30.7344 103.904 32.2188 104.471 33.4492C105.057 34.6797 105.887 35.627 106.961 36.291C108.035 36.9355 109.314 37.2578 110.799 37.2578C111.971 37.2578 112.986 37.0723 113.846 36.7012C114.705 36.3301 115.408 35.8613 115.955 35.2949C116.502 34.7285 116.873 34.1523 117.068 33.5664L117.127 33.3906H124.979L124.891 33.7129C124.656 34.8652 124.197 36.0273 123.514 37.1992C122.83 38.3711 121.902 39.4453 120.73 40.4219C119.578 41.3984 118.162 42.1797 116.482 42.7656C114.822 43.3516 112.869 43.6445 110.623 43.6445Z" fill="#10422A"/>
<path d="M75.4668 43V11.5938H84.0215V17.0723H84.1973C84.666 15.1387 85.5156 13.6348 86.7461 12.5605C87.9766 11.4863 89.5098 10.9492 91.3457 10.9492C91.8145 10.9492 92.2637 10.9785 92.6934 11.0371C93.123 11.0957 93.4941 11.1738 93.8066 11.2715V18.8008C93.4551 18.6641 93.0059 18.5566 92.459 18.4785C91.9121 18.3809 91.3262 18.332 90.7012 18.332C89.2949 18.332 88.0938 18.6055 87.0977 19.1523C86.1016 19.6992 85.3398 20.5 84.8125 21.5547C84.2852 22.6094 84.0215 23.8984 84.0215 25.4219V43H75.4668Z" fill="#10422A"/>
<path d="M66.6191 43.6445C63.1426 43.6445 60.5645 42.9121 58.8848 41.4473C57.2051 39.9824 56.3652 37.5703 56.3652 34.2109V18.0391H52V11.5938H56.3652V3.91797H65.0078V11.5938H70.75V18.0391H65.0078V33.2734C65.0078 34.7383 65.3301 35.7637 65.9746 36.3496C66.6387 36.916 67.6152 37.1992 68.9043 37.1992C69.2949 37.1992 69.6367 37.1895 69.9297 37.1699C70.2227 37.1309 70.4961 37.0918 70.75 37.0527V43.3223C70.2812 43.4004 69.6953 43.4688 68.9922 43.5273C68.3086 43.6055 67.5176 43.6445 66.6191 43.6445Z" fill="#10422A"/>
</svg>
